custom-analysis
version=1
nRows=4
nColumns=98
inDegrees=no

This file contains tibia displacement and acting force.

Units are S.I. units (seconds, meters, Newtons, ...)
Angles are in degrees.

endheader
time	APT	SIT	knee_angle	aACL_R_force	pACL_R_force	aPCL_R_force	pPCL_R_force	aMCL_R_force	mMCL_R_force	pMCL_R_force	aLCL_R_force	mLCL_R_force	pLCL_R_force	aPCL_L_force	pPCL_L_force	aMCL_L_force	aLCL_L_force	aACL_R_length	pACL_R_length	aPCL_R_length	pPCL_R_length	aMCL_R_length	mMCL_R_length	pMCL_R_length	aLCL_R_length	mLCL_R_length	pLCL_R_length	aPCL_L_length	pPCL_L_length	aMCL_L_length	aLCL_L_length	aACL_R_strain	pACL_R_strain	aPCL_R_strain	pPCL_R_strain	aMCL_R_strain	mMCL_R_strain	pMCL_R_strain	aLCL_R_strain	mLCL_R_strain	pLCL_R_strain	aPCL_L_strain	pPCL_L_strain	aMCL_L_strain	aLCL_L_strain	femur_lat_meniscii_r.femur_lat_r.force.X	femur_lat_meniscii_r.femur_lat_r.force.Y	femur_lat_meniscii_r.femur_lat_r.force.Z	femur_lat_meniscii_r.femur_lat_r.torque.X	femur_lat_meniscii_r.femur_lat_r.torque.Y	femur_lat_meniscii_r.femur_lat_r.torque.Z	femur_lat_meniscii_r.meniscus_lat_r.force.X	femur_lat_meniscii_r.meniscus_lat_r.force.Y	femur_lat_meniscii_r.meniscus_lat_r.force.Z	femur_lat_meniscii_r.meniscus_lat_r.torque.X	femur_lat_meniscii_r.meniscus_lat_r.torque.Y	femur_lat_meniscii_r.meniscus_lat_r.torque.Z	femur_med_meniscii_r.femur_med_r.force.X	femur_med_meniscii_r.femur_med_r.force.Y	femur_med_meniscii_r.femur_med_r.force.Z	femur_med_meniscii_r.femur_med_r.torque.X	femur_med_meniscii_r.femur_med_r.torque.Y	femur_med_meniscii_r.femur_med_r.torque.Z	femur_med_meniscii_r.meniscus_med_r.force.X	femur_med_meniscii_r.meniscus_med_r.force.Y	femur_med_meniscii_r.meniscus_med_r.force.Z	femur_med_meniscii_r.meniscus_med_r.torque.X	femur_med_meniscii_r.meniscus_med_r.torque.Y	femur_med_meniscii_r.meniscus_med_r.torque.Z	femur_med_tibia_r.tibia_upper_r.force.X	femur_med_tibia_r.tibia_upper_r.force.Y	femur_med_tibia_r.tibia_upper_r.force.Z	femur_med_tibia_r.tibia_upper_r.torque.X	femur_med_tibia_r.tibia_upper_r.torque.Y	femur_med_tibia_r.tibia_upper_r.torque.Z	femur_med_tibia_r.femur_med_r.force.X	femur_med_tibia_r.femur_med_r.force.Y	femur_med_tibia_r.femur_med_r.force.Z	femur_med_tibia_r.femur_med_r.torque.X	femur_med_tibia_r.femur_med_r.torque.Y	femur_med_tibia_r.femur_med_r.torque.Z	femur_lat_tibia_r.tibia_upper_r.force.X	femur_lat_tibia_r.tibia_upper_r.force.Y	femur_lat_tibia_r.tibia_upper_r.force.Z	femur_lat_tibia_r.tibia_upper_r.torque.X	femur_lat_tibia_r.tibia_upper_r.torque.Y	femur_lat_tibia_r.tibia_upper_r.torque.Z	femur_lat_tibia_r.femur_lat_r.force.X	femur_lat_tibia_r.femur_lat_r.force.Y	femur_lat_tibia_r.femur_lat_r.force.Z	femur_lat_tibia_r.femur_lat_r.torque.X	femur_lat_tibia_r.femur_lat_r.torque.Y	femur_lat_tibia_r.femur_lat_r.torque.Z	femur_lat_meniscii_force_r	femur_med_meniscii_force_r	femur_lat_tibia_force_r	femur_med_tibia_force_r
      0.10280956	      0.00879128	      0.00696984	     26.03120446	     28.60196444	     -1.90853676	      0.00000000	      0.00000000	      0.00000000	      0.00000000	    -33.60195148	      0.00000000	      0.00000000	      0.00000000	      0.00000000	      0.00000000	      0.00000001	      0.00000000	      0.03328381	      0.02620392	      0.02992155	      0.02938409	      0.05708755	      0.05965155	      0.05925480	      0.05294929	      0.05012550	      0.04673412	      0.01525851	      0.01651186	      0.06550154	      0.04489616	      0.07348082	      0.04570149	     -0.03774698	     -0.01685349	     -0.04896881	     -0.00237409	      0.00897023	     -0.05409181	     -0.10996543	     -0.10715121	      0.00000079	     -0.32847694	      0.00000060	     -0.00000086	     13.62610042	    165.91955742	     22.95610590	    -13.41908127	      0.38164608	      5.19894940	    -13.62610042	   -165.91955742	    -22.95610590	      5.02496371	     -0.64751852	      1.70520618	    -12.28017148	     18.68585275	     -0.21108505	      0.54455083	      0.30018053	     -5.03502706	     12.28017148	    -18.68585275	      0.21108505	     -0.41993008	     -0.26920884	      0.52674113	    -46.57765296	   -471.31542011	    122.57476726	    -11.55505271	      1.69175157	      2.14294703	     46.57765296	    471.31542011	   -122.57476726	     59.56107601	     -0.55219117	     20.48079803	    -62.85958359	   -368.88452872	    -87.31925577	     12.44240760	     -2.47587976	      1.49235418	     62.85958359	    368.88452872	     87.31925577	    -44.98696664	      1.43868250	     26.31758794	    168.05342289	     22.36086451	    384.25483107	    489.21598151
      0.10363232	      0.00880848	      0.00707108	     26.38762347	     27.51681143	     -3.04668424	      0.00000000	      0.00000000	      0.00000000	      0.00000000	    -32.95435357	      0.00000000	      0.00000000	      0.00000000	      0.00000000	      0.00000000	      0.00000001	      0.00000000	      0.03325860	      0.02616796	      0.02999626	      0.02944264	      0.05711954	      0.05965162	      0.05921653	      0.05294450	      0.05009873	      0.04668502	      0.01525851	      0.01651186	      0.06550154	      0.04489616	      0.07266765	      0.04426633	     -0.03534427	     -0.01489425	     -0.04843580	     -0.00237287	      0.00831849	     -0.05417742	     -0.11044085	     -0.10808925	      0.00000079	     -0.32847694	      0.00000060	     -0.00000086	     13.00938282	    165.37661116	     24.04353681	    -13.86447893	      0.36664576	      4.92637800	    -13.00938282	   -165.37661116	    -24.04353681	      5.04797499	     -0.64371420	      1.74975765	    -13.15639284	     19.83294508	     -0.01578607	      0.48851790	      0.31701038	     -5.39881091	     13.15639284	    -19.83294508	      0.01578607	     -0.43656628	     -0.28639224	      0.56872706	    -48.98457945	   -477.09181765	    123.46759524	    -11.67933616	      1.74383390	      2.13444842	     48.98457945	    477.09181765	   -123.46759524	     60.02390749	     -0.58908549	     21.50786443	    -61.45425092	   -357.67830418	    -85.18914995	     12.06664883	     -2.43070015	      1.49589443	     61.45425092	    357.67830418	     85.18914995	    -43.83301439	      1.41345510	     25.69095609	    167.62087944	     23.79992925	    372.78356389	    495.23765867
      0.10445507	      0.00882675	      0.00717315	     26.74618961	     26.31344299	     -4.27888981	      0.00000000	      0.00000000	      0.00000000	      0.00000000	    -32.30572100	      0.00000000	      0.00000000	      0.00000000	      0.00000000	      0.00000000	      0.00000001	      0.00000000	      0.03323291	      0.02613158	      0.03007173	      0.02950167	      0.05715261	      0.05965248	      0.05917908	      0.05294030	      0.05007230	      0.04663615	      0.01525851	      0.01651186	      0.06550154	      0.04489616	      0.07183908	      0.04281455	     -0.03291716	     -0.01291939	     -0.04788498	     -0.00235845	      0.00768088	     -0.05425253	     -0.11091011	     -0.10902284	      0.00000079	     -0.32847694	      0.00000060	     -0.00000086	     12.67038454	    164.16385884	     24.34414076	    -13.95501764	      0.36565530	      4.76965292	    -12.67038454	   -164.16385884	    -24.34414076	      5.01551114	     -0.64666080	      1.77803893	    -14.13369006	     21.15849104	      0.10785858	      0.46718600	      0.33666853	     -5.80462600	     14.13369006	    -21.15849104	     -0.10785858	     -0.46017089	     -0.30553347	      0.61615282	    -49.60128623	   -482.51705715	    124.88618664	    -11.82114076	      1.77525932	      2.19431275	     49.60128623	    482.51705715	   -124.88618664	     60.70390442	     -0.59520242	     21.77988018	    -62.08660405	   -346.68160471	    -83.60514923	     11.72144651	     -2.43948261	      1.41143465	     62.08660405	    346.68160471	     83.60514923	    -42.91783877	      1.43204328	     25.93303826	    166.44202709	     25.44512863	    361.98439528	    500.87878538
      0.10527782	      0.00884618	      0.00727608	     27.10687001	     25.22070614	     -5.35259907	      0.00000000	      0.00000000	      0.00000000	      0.00000000	    -31.80996702	      0.00000000	      0.00000000	      0.00000000	      0.00000000	      0.00000000	      0.00000001	      0.00000000	      0.03320665	      0.02609470	      0.03014792	      0.02956107	      0.05718669	      0.05965406	      0.05914240	      0.05293661	      0.05004613	      0.04658743	      0.01525851	      0.01651186	      0.06550154	      0.04489616	      0.07099224	      0.04134308	     -0.03046702	     -0.01093192	     -0.04731720	     -0.00233203	      0.00705620	     -0.05431828	     -0.11137474	     -0.10995368	      0.00000079	     -0.32847694	      0.00000060	     -0.00000086	     11.31165029	    163.42595309	     25.00211933	    -14.21140779	      0.32979354	      4.18037422	    -11.31165029	   -163.42595309	    -25.00211933	      5.01317011	     -0.61628721	      1.85382422	    -14.36059761	     22.27557919	      0.30338923	      0.41133281	      0.34277678	     -5.89304149	     14.36059761	    -22.27557919	     -0.30338923	     -0.47732844	     -0.31365974	      0.63136554	    -51.41288770	   -485.91567970	    124.05044316	    -11.84191085	      1.80607862	      2.19250566	     51.41288770	    485.91567970	   -124.05044316	     60.39520617	     -0.62637229	     22.55148434	    -61.39621199	   -335.55686632	    -81.75981255	     11.36193619	     -2.41574920	      1.37571109	     61.39621199	    335.55686632	     81.75981255	    -41.88831389	      1.42401368	     25.61783930	    165.71391476	     26.50509832	    350.78850085	    504.12879827
